<!-- Generator: Adobe Illustrator 24.1.0, SVG Export Plug-In  -->
<svg version="1.1" xmlns="http://www.w3.org/2000/svg" xmlns:xlink="http://www.w3.org/1999/xlink" x="0px" y="0px" width="446.2px"
	 height="48.4px" viewBox="0 0 446.2 48.4" style="enable-background:new 0 0 446.2 48.4;" xml:space="preserve">
<style type="text/css">
	.st0{fill:#FFFFFF;}
</style>
<defs>
</defs>
<path class="st0" d="M19.2,37.5C8.8,37.8,0.2,29.6,0,19.2S8,0.2,18.3,0c0.3,0,0.6,0,0.9,0C24-0.1,28.6,1.8,32,5.2l-3.6,3.6
	c-2.5-2.4-5.8-3.7-9.3-3.7c-7.5,0-13.6,6.1-13.6,13.6c0,7.5,6.1,13.6,13.6,13.6c3.5,0.1,7-1.2,9.5-3.8c1.6-1.8,2.6-4,2.8-6.4H19.2
	v-5.1h17.3c0.2,1.1,0.3,2.1,0.3,3.2c0,3.8-1.1,8.6-4.4,12S24.8,37.5,19.2,37.5"/>
<path class="st0" d="M63.4,25.4c-0.1,6.6-5.5,11.8-12.1,11.7s-11.8-5.5-11.7-12.1c0.1-6.5,5.4-11.7,11.9-11.7
	c6.5,0,11.9,5.2,11.9,11.8C63.4,25.2,63.4,25.3,63.4,25.4 M58.2,25.4c0-4.3-3.1-7.3-6.7-7.3s-6.7,3-6.7,7.3s3.1,7.3,6.7,7.3
	S58.2,29.8,58.2,25.4"/>
<path class="st0" d="M90.1,25.4C90,32,84.6,37.3,78,37.2s-11.8-5.5-11.7-12.1c0.1-6.5,5.4-11.7,11.9-11.7c6.5,0,11.9,5.2,11.9,11.7
	C90.1,25.2,90.1,25.3,90.1,25.4 M84.9,25.4c0-4.3-3.1-7.3-6.7-7.3s-6.7,3-6.7,7.3s3.1,7.3,6.7,7.3S84.9,29.8,84.9,25.4"/>
<path class="st0" d="M116.1,14.1v21.7c0,8.9-5.3,12.6-11.5,12.6c-4.7,0-8.9-2.8-10.7-7.1l4.6-1.9c1,2.5,3.4,4.2,6.1,4.3
	c4,0,6.4-2.5,6.4-7.1v-1.7h-0.2c-1.6,1.8-3.9,2.8-6.4,2.8C98.1,37.3,93,32,93,25.5c0-6.8,5.5-12.1,11.6-12.1
	c2.4-0.1,4.7,0.9,6.4,2.7h0.2v-2L116.1,14.1z M111.4,25.5c0-4.3-2.8-7.4-6.4-7.4s-6.7,3.1-6.7,7.4s3.1,7.3,6.7,7.3
	S111.4,29.7,111.4,25.5"/>
<rect x="120.1" y="1.3" class="st0" width="5.3" height="35.5"/>
<path class="st0" d="M146.3,29.4l4.1,2.7c-2.2,3.4-6,5.4-10.1,5.4c-6.9,0-11.8-5.3-11.8-12.1c0-7.2,5-12.1,11.2-12.1s9.3,5,10.3,7.7
	l0.6,1.4l-16.1,6.7c1,2.3,3.3,3.8,5.9,3.7C142.8,32.8,145,31.5,146.3,29.4 M133.6,25.1l10.8-4.5c-0.8-1.7-2.6-2.7-4.5-2.6
	c-3.7,0.2-6.5,3.3-6.3,6.9C133.6,25,133.6,25,133.6,25.1"/>
<polygon class="st0" points="165,37.4 165,4.4 170.1,4.4 186.2,30.1 186.4,30.1 186.2,23.7 186.2,4.4 190.4,4.4 190.4,37.4
	186,37.4 169.2,10.4 169,10.4 169.2,16.8 169.2,37.4 "/>
<path class="st0" d="M206.6,38.1c-3.1,0.1-6.2-1.1-8.4-3.4c-2.2-2.3-3.3-5.4-3.2-8.6c-0.1-3.1,1-6.1,3.1-8.5c2-2.3,4.9-3.6,8-3.6
	c3-0.2,6,1,8.1,3.2c2.1,2.4,3.2,5.6,3,8.8l0,0.8h-17.9c0,2,0.8,4,2.3,5.4c1.3,1.3,3.1,2,4.9,2c3,0,5.1-1.3,6.2-3.9l3.8,1.6
	c-0.8,1.8-2,3.3-3.6,4.4C210.9,37.6,208.8,38.2,206.6,38.1 M212.6,23.3c-0.1-1.4-0.8-2.7-1.8-3.7c-1.3-1.2-3.1-1.9-4.9-1.8
	c-1.5,0-3,0.5-4.1,1.5c-1.2,1-2,2.4-2.4,4L212.6,23.3z"/>
<polygon class="st0" points="245,37.4 240.6,37.4 235,20 229.4,37.4 225.1,37.4 217.8,14.8 222.2,14.8 227.3,31.9 227.3,31.9
	232.9,14.8 237.3,14.8 242.9,31.9 242.9,31.9 247.9,14.8 252.2,14.8 "/>
<path class="st0" d="M262.9,38.1c-2.2,0.1-4.4-0.6-6.2-1.8c-1.6-1.2-2.9-2.8-3.6-4.6l3.8-1.6c0.9,2.6,3.4,4.3,6.1,4.2
	c1.2,0.1,2.3-0.3,3.3-0.9c0.8-0.5,1.3-1.4,1.3-2.3c0-1.5-1-2.5-3.1-3l-4.6-1.1c-1.5-0.4-2.9-1.1-4.1-2.1c-1.3-1-2-2.6-1.9-4.2
	c0-2,1-3.8,2.6-4.9c1.9-1.3,4.1-1.9,6.3-1.9c1.9,0,3.7,0.4,5.4,1.4c1.5,0.9,2.7,2.3,3.4,3.9l-3.7,1.5c-0.8-2-2.6-3-5.2-3
	c-1.1,0-2.2,0.2-3.2,0.8c-0.8,0.4-1.3,1.2-1.3,2.1c0,1.3,1,2.2,3,2.6l4.5,1.1c1.8,0.3,3.5,1.2,4.7,2.5c1,1.1,1.5,2.6,1.5,4.1
	c0,2-0.9,3.9-2.5,5.1C267.5,37.5,265.2,38.2,262.9,38.1"/>
<rect x="286.4" y="4.4" class="st0" width="4.2" height="33"/>
<path class="st0" d="M300.5,14.8v3.1h0.2c0.7-1.2,1.7-2.1,2.9-2.8c1.3-0.7,2.8-1.1,4.2-1.1c2.4-0.2,4.8,0.8,6.4,2.6
	c1.6,2,2.4,4.4,2.2,6.9v13.9h-4.3V24.2c0-4.2-1.9-6.3-5.6-6.3c-1.7,0-3.3,0.7-4.3,2.1c-1.1,1.4-1.7,3.1-1.7,4.9v12.5h-4.2V14.8
	H300.5z"/>
<path class="st0" d="M325.5,9.1c-0.6,0.6-1.3,0.9-2.1,0.9c-0.8,0-1.6-0.3-2.1-0.9c-1.2-1.2-1.2-3.1,0-4.2c0.6-0.6,1.3-0.9,2.1-0.9
	c0.8,0,1.6,0.3,2.1,0.9C326.7,6,326.7,7.9,325.5,9.1 M325.5,37.4h-4.2V14.8h4.2V37.4z"/>
<path class="st0" d="M339.9,37.8c-3.6,0.4-6.9-2.1-7.3-5.7c-0.1-0.5-0.1-1,0-1.5V18.7h-4v-3.9h4V7.9h4.2v6.9h5.5v3.9h-5.5v11.5
	c0,2.5,1,3.7,3,3.7c0.7,0,1.3-0.1,1.9-0.4l1.5,3.6C342.2,37.6,341.1,37.8,339.9,37.8"/>
<path class="st0" d="M350.5,9.1c-1.2,1.2-3.1,1.2-4.3,0c-1.2-1.2-1.2-3.1,0-4.3l0,0c1.2-1.2,3.1-1.2,4.2,0S351.6,7.9,350.5,9.1
	L350.5,9.1 M350.4,37.4h-4.2V14.8h4.2V37.4z"/>
<path class="st0" d="M362.5,38.1c-2.2,0.1-4.3-0.7-6-2.1c-1.6-1.4-2.5-3.4-2.4-5.5c-0.1-2.3,1-4.5,2.9-5.8c2.1-1.4,4.5-2.2,7.1-2.1
	c2.1-0.1,4.3,0.4,6.2,1.4v-0.7c0.1-1.5-0.6-3-1.7-4c-1.2-1-2.7-1.5-4.2-1.5c-1.2,0-2.3,0.3-3.4,0.9c-1,0.5-1.7,1.4-2,2.4l-3.9-1.7
	c0.7-1.5,1.7-2.8,3.1-3.8c1.8-1.2,3.9-1.8,6.1-1.7c2.6-0.1,5.2,0.8,7.2,2.5c1.9,1.9,3,4.5,2.8,7.2v13.7h-4v-3.1H370
	C368.4,36.8,365.6,38.3,362.5,38.1 M363.2,34.3c1.8,0,3.5-0.7,4.8-2c1.4-1.1,2.2-2.8,2.2-4.6c-1.6-1.1-3.5-1.6-5.4-1.5
	c-1.7-0.1-3.3,0.4-4.7,1.3c-1,0.7-1.6,1.9-1.6,3.1c0,1.1,0.5,2.1,1.4,2.6C360.9,33.9,362,34.3,363.2,34.3"/>
<path class="st0" d="M387.9,37.8c-3.6,0.4-6.9-2.1-7.3-5.7c-0.1-0.5-0.1-1,0-1.5V18.7h-4v-3.9h4V7.9h4.2v6.9h5.5v3.9h-5.5v11.5
	c0,2.5,1,3.7,3,3.7c0.7,0,1.3-0.1,1.9-0.4l1.5,3.6C390.2,37.6,389,37.8,387.9,37.8"/>
<path class="st0" d="M398.4,9.1c-1.2,1.2-3.1,1.2-4.2,0s-1.2-3.1,0-4.2c0.6-0.6,1.3-0.9,2.1-0.9c0.8,0,1.6,0.3,2.1,0.9
	C399.6,6,399.6,7.9,398.4,9.1 M398.4,37.4h-4.2V14.8h4.2L398.4,37.4z"/>
<polygon class="st0" points="410.3,37.4 401.1,14.8 405.7,14.8 412.4,32.3 412.5,32.3 419.2,14.8 423.7,14.8 414.5,37.4 "/>
<path class="st0" d="M435.6,38.1c-3.1,0.1-6.2-1.1-8.3-3.4c-2.2-2.3-3.3-5.4-3.2-8.6c-0.1-3.1,1-6.1,3.1-8.5c2-2.3,4.9-3.6,8-3.6
	c3-0.1,5.9,1.1,8,3.2c2.1,2.4,3.2,5.6,3,8.8l0,0.8h-17.8c0,2,0.8,4,2.3,5.4c1.3,1.3,3.1,2,4.9,2c3,0,5.1-1.3,6.2-3.9l3.8,1.6
	c-0.8,1.8-2,3.3-3.6,4.4C440,37.6,437.8,38.2,435.6,38.1 M441.7,23.3c-0.1-1.4-0.8-2.7-1.8-3.7c-1.3-1.2-3.1-1.9-4.9-1.8
	c-1.5,0-3,0.5-4.1,1.5c-1.2,1-2,2.4-2.4,4L441.7,23.3z"/>
</svg>
